# xmcd
#
# Track frame offsets: 
#        180
#        29897
#        55638
#        78373
#        105806
#        125662
#        145237
#        170042
#        191863
#        220071
#        241499
#        266353
#        290780
#
# Disc length: 4294 seconds
#
# Revision: 1
# Processed by: cddbd v1.5.2PL0 Copyright (c) Steve Scherf et al.
# Submitted via: ExactAudioCopyFreeDBPlugin 1.0
#
DISCID=c410c40d
DTITLE=Various Artist - Dorado: A Compilation (3)
DYEAR=1900
DGENRE=
TTITLE0=Cool World Ensemble - It's A Cool World
TTITLE1=Colonel Kurtz - Smell The Music
TTITLE2=Brooklyn Funk Essentials - The Revolution Was Postponed Becaus
TTITLE2=e Of Rain
TTITLE3=Cool Breeze - Tik Tok (Come On)
TTITLE4=Schkoonk Heepooz - Qui (Flying Flute Instrumental)
TTITLE5=High Stepper's Featuing The 'O' - MP
TTITLE6=Sound Advice - Crusin'
TTITLE7=Outside - Kaleidoscopic Summer (King Tubby Revisited Mix)
TTITLE8=Slowly - Understanding Peace (Dorado Mix)
TTITLE9=Origin Featuring Shaka - Musicman
TTITLE10=Mesh Of The Mind - Learn The Words
TTITLE11=Ute - Soul Thing
TTITLE12=Jhelisa - Secret Place
EXTD=
EXTT0=
EXTT1=
EXTT2=
EXTT3=
EXTT4=
EXTT5=
EXTT6=
EXTT7=
EXTT8=
EXTT9=
EXTT10=
EXTT11=
EXTT12=
PLAYORDER=
